<svg width="21" height="20" viewBox="0 0 21 20" fill="none" xmlns="http://www.w3.org/2000/svg">
<path d="M7.60824 10.9167C7.19402 10.9167 6.85824 11.2524 6.85824 11.6667C6.85824 12.0809 7.19402 12.4167 7.60824 12.4167V11.6667V10.9167ZM14.2749 12.4167C14.6891 12.4167 15.0249 12.0809 15.0249 11.6667C15.0249 11.2524 14.6891 10.9167 14.2749 10.9167V11.6667V12.4167ZM7.60824 4.24999C7.19402 4.24999 6.85824 4.58578 6.85824 4.99999C6.85824 5.4142 7.19402 5.74999 7.60824 5.74999V4.99999V4.24999ZM14.2749 5.74999C14.6891 5.74999 15.0249 5.4142 15.0249 4.99999C15.0249 4.58578 14.6891 4.24999 14.2749 4.24999V4.99999V5.74999ZM7.60824 7.58332C7.19402 7.58332 6.85824 7.91911 6.85824 8.33332C6.85824 8.74754 7.19402 9.08332 7.60824 9.08332V8.33332V7.58332ZM14.2749 9.08332C14.6891 9.08332 15.0249 8.74754 15.0249 8.33332C15.0249 7.91911 14.6891 7.58332 14.2749 7.58332V8.33332V9.08332ZM5.10824 14.25C4.69402 14.25 4.35824 14.5858 4.35824 15C4.35824 15.4142 4.69402 15.75 5.10824 15.75V15V14.25ZM16.7749 15.75C17.1891 15.75 17.5249 15.4142 17.5249 15C17.5249 14.5858 17.1891 14.25 16.7749 14.25V15V15.75ZM5.17328 18.1457L4.82755 18.8112L5.17328 18.1457ZM4.46255 17.4349L3.79699 17.7807L4.46255 17.4349ZM17.4206 17.4349L18.0862 17.7807L17.4206 17.4349ZM16.7099 18.1457L17.0556 18.8112L16.7099 18.1457ZM16.7099 1.8543L17.0556 1.18874L16.7099 1.8543ZM17.4206 2.56503L18.0862 2.2193L17.4206 2.56503ZM5.17328 1.8543L4.82755 1.18874L5.17328 1.8543ZM4.46255 2.56503L3.79699 2.2193L4.46255 2.56503ZM7.60824 11.6667V12.4167H14.2749V11.6667V10.9167H7.60824V11.6667ZM7.60824 4.99999V5.74999H14.2749V4.99999V4.24999H7.60824V4.99999ZM7.60824 8.33332V9.08332H14.2749V8.33332V7.58332H7.60824V8.33332ZM5.10824 15V15.75H16.7749V15V14.25H5.10824V15ZM6.95824 1.66666V2.41666H14.9249V1.66666V0.916656H6.95824V1.66666ZM17.6082 4.34999H16.8582V15.65H17.6082H18.3582V4.34999H17.6082ZM14.9249 18.3333V17.5833H6.95824V18.3333V19.0833H14.9249V18.3333ZM4.2749 15.65H5.0249V4.34999H4.2749H3.5249V15.65H4.2749ZM6.95824 18.3333V17.5833C6.47107 17.5833 6.15156 17.5827 5.90736 17.5624C5.67213 17.5429 5.57473 17.5091 5.51901 17.4801L5.17328 18.1457L4.82755 18.8112C5.13306 18.9699 5.45356 19.0299 5.78322 19.0573C6.1039 19.0839 6.49625 19.0833 6.95824 19.0833V18.3333ZM4.2749 15.65H3.5249C3.5249 16.112 3.5243 16.5043 3.55093 16.825C3.57831 17.1547 3.63829 17.4752 3.79699 17.7807L4.46255 17.4349L5.12811 17.0892C5.09916 17.0335 5.06532 16.9361 5.04578 16.7009C5.02551 16.4567 5.0249 16.1372 5.0249 15.65H4.2749ZM5.17328 18.1457L5.51901 17.4801C5.35159 17.3931 5.21508 17.2566 5.12811 17.0892L4.46255 17.4349L3.79699 17.7807C4.02627 18.2221 4.38616 18.582 4.82755 18.8112L5.17328 18.1457ZM17.6082 15.65H16.8582C16.8582 16.1372 16.8576 16.4567 16.8374 16.7009C16.8178 16.9361 16.784 17.0335 16.755 17.0892L17.4206 17.4349L18.0862 17.7807C18.2449 17.4752 18.3048 17.1547 18.3322 16.825C18.3588 16.5043 18.3582 16.112 18.3582 15.65H17.6082ZM14.9249 18.3333V19.0833C15.3869 19.0833 15.7792 19.0839 16.0999 19.0573C16.4296 19.0299 16.7501 18.9699 17.0556 18.8112L16.7099 18.1457L16.3641 17.4801C16.3084 17.5091 16.211 17.5429 15.9758 17.5624C15.7316 17.5827 15.4121 17.5833 14.9249 17.5833V18.3333ZM17.4206 17.4349L16.755 17.0892C16.6681 17.2566 16.5316 17.3931 16.3641 17.4801L16.7099 18.1457L17.0556 18.8112C17.497 18.582 17.8569 18.2221 18.0862 17.7807L17.4206 17.4349ZM14.9249 1.66666V2.41666C15.4121 2.41666 15.7316 2.41726 15.9758 2.43754C16.211 2.45707 16.3084 2.49092 16.3641 2.51986L16.7099 1.8543L17.0556 1.18874C16.7501 1.03004 16.4296 0.970062 16.0999 0.942685C15.7792 0.916054 15.3869 0.916656 14.9249 0.916656V1.66666ZM17.6082 4.34999H18.3582C18.3582 3.888 18.3588 3.49565 18.3322 3.17497C18.3048 2.84531 18.2449 2.52481 18.0862 2.2193L17.4206 2.56503L16.755 2.91076C16.784 2.96648 16.8178 3.06389 16.8374 3.29911C16.8576 3.54331 16.8582 3.86283 16.8582 4.34999H17.6082ZM16.7099 1.8543L16.3641 2.51986C16.5316 2.60683 16.6681 2.74334 16.755 2.91076L17.4206 2.56503L18.0862 2.2193C17.8569 1.77791 17.497 1.41802 17.0556 1.18874L16.7099 1.8543ZM6.95824 1.66666V0.916656C6.49625 0.916656 6.1039 0.916054 5.78322 0.942685C5.45356 0.970062 5.13306 1.03004 4.82755 1.18874L5.17328 1.8543L5.51901 2.51986C5.57473 2.49092 5.67213 2.45707 5.90736 2.43754C6.15156 2.41726 6.47107 2.41666 6.95824 2.41666V1.66666ZM4.2749 4.34999H5.0249C5.0249 3.86282 5.02551 3.54331 5.04578 3.29911C5.06532 3.06389 5.09916 2.96648 5.12811 2.91076L4.46255 2.56503L3.79699 2.2193C3.63829 2.52481 3.57831 2.84531 3.55093 3.17497C3.5243 3.49565 3.5249 3.888 3.5249 4.34999H4.2749ZM5.17328 1.8543L4.82755 1.18874C4.38616 1.41802 4.02627 1.77791 3.79699 2.2193L4.46255 2.56503L5.12811 2.91076C5.21508 2.74334 5.35159 2.60683 5.51901 2.51986L5.17328 1.8543Z" fill="#757575"/>
</svg>
