<svg width="19" height="18" viewBox="0 0 19 18" fill="none" xmlns="http://www.w3.org/2000/svg">
<path d="M9.05902 11.2916C11.0726 11.2916 12.7049 9.65933 12.7049 7.64579C12.7049 5.63225 11.0726 3.99996 9.05902 3.99996C7.04548 3.99996 5.41319 5.63225 5.41319 7.64579C5.41319 9.65933 7.04548 11.2916 9.05902 11.2916ZM9.05902 11.2916C11.9007 11.2916 14.2679 12.8156 14.7867 14.8333M9.05902 11.2916C6.21731 11.2916 3.85019 12.8156 3.33138 14.8333M17.3923 8.99996C17.3923 13.6023 13.6613 17.3333 9.05892 17.3333C4.45655 17.3333 0.725586 13.6023 0.725586 8.99996C0.725586 4.39759 4.45655 0.666626 9.05892 0.666626C13.6613 0.666626 17.3923 4.39759 17.3923 8.99996Z" stroke="#757575" stroke-width="1.25" stroke-linecap="round"/>
</svg>
