<svg width="24" height="25" viewBox="0 0 24 25" fill="none" xmlns="http://www.w3.org/2000/svg">
<path d="M3.00559 8.83331C3 9.24592 3 9.70893 3 10.2333V15.4333C3 17.6735 3 18.7936 3.43597 19.6493C3.81947 20.4019 4.43139 21.0138 5.18404 21.3973C6.03968 21.8333 7.15979 21.8333 9.4 21.8333H14.6C15.1244 21.8333 15.5874 21.8333 16 21.8277M3.00559 8.83331C3.02389 7.48321 3.10205 6.67271 3.43597 6.01735C3.81947 5.2647 4.43139 4.65278 5.18404 4.26929C6.03968 3.83331 7.15979 3.83331 9.4 3.83331H14.6C16.8402 3.83331 17.9603 3.83331 18.816 4.26929C19.5686 4.65278 20.1805 5.2647 20.564 6.01735C21 6.873 21 7.9931 21 10.2333V15.4333C21 16.9471 21 17.9495 20.8655 18.7044M3.00559 8.83331L8.00559 13.8333M16 21.8277C17.3501 21.8094 18.1606 21.7313 18.816 21.3973C19.5686 21.0138 20.1805 20.4019 20.564 19.6493C20.7054 19.3718 20.8009 19.0666 20.8655 18.7044M16 21.8277L8.00559 13.8333M8.00559 13.8333L9.73726 12.1016C10.5293 11.3096 10.9253 10.9136 11.382 10.7652C11.7837 10.6347 12.2163 10.6347 12.618 10.7652C13.0747 10.9136 13.4707 11.3096 14.2627 12.1016L20.8655 18.7044M17.01 7.83331H16.99" stroke="#757575" stroke-width="1.5" stroke-linecap="round"/>
</svg>
