<svg width="16" height="16" viewBox="0 0 16 16" fill="none" xmlns="http://www.w3.org/2000/svg">
<path d="M8.25 7.7498V8.2498M7.75 7.7498V8.2498M8.25 3.08313V3.58313M7.75 3.08313V3.58313M8.25 12.4165V12.9165M7.75 12.4165V12.9165M7.99996 8.66663C7.63177 8.66663 7.33329 8.36815 7.33329 7.99996C7.33329 7.63177 7.63177 7.33329 7.99996 7.33329C8.36815 7.33329 8.66663 7.63177 8.66663 7.99996C8.66663 8.36815 8.36815 8.66663 7.99996 8.66663ZM7.99996 3.99996C7.63177 3.99996 7.33329 3.70148 7.33329 3.33329C7.33329 2.9651 7.63177 2.66663 7.99996 2.66663C8.36815 2.66663 8.66663 2.9651 8.66663 3.33329C8.66663 3.70148 8.36815 3.99996 7.99996 3.99996ZM7.99996 13.3333C7.63177 13.3333 7.33329 13.0348 7.33329 12.6666C7.33329 12.2984 7.63177 12 7.99996 12C8.36815 12 8.66663 12.2984 8.66663 12.6666C8.66663 13.0348 8.36815 13.3333 7.99996 13.3333Z" stroke="#303030" stroke-width="1.33333" stroke-linecap="round"/>
</svg>
