<svg width="15" height="14" viewBox="0 0 15 14" fill="none" xmlns="http://www.w3.org/2000/svg">
<path d="M4.85602 2.62128L4.31936 2.35295L4.31936 2.35296L4.85602 2.62128ZM4.91036 2.51259L4.37371 2.24426L4.37371 2.24426L4.91036 2.51259ZM10.0896 2.51259L9.55298 2.78092L9.55298 2.78092L10.0896 2.51259ZM10.144 2.62128L10.6806 2.35296L10.6806 2.35295L10.144 2.62128ZM10.1994 2.6661L10.1229 3.2612L10.1229 3.26121L10.1994 2.6661ZM10.1525 2.63715L9.65446 2.97171L9.65447 2.97173L10.1525 2.63715ZM9.11072 1.40619L9.30636 0.838979L9.30636 0.838979L9.11072 1.40619ZM9.60891 1.71409L10.0287 1.28544L10.0287 1.28544L9.60891 1.71409ZM5.39109 1.71409L4.97126 1.28544L4.97126 1.28544L5.39109 1.71409ZM5.88928 1.40619L6.08493 1.97339L6.08493 1.97339L5.88928 1.40619ZM4.80063 2.6661L4.72412 2.071L4.72412 2.071L4.80063 2.6661ZM4.84747 2.63715L4.34942 2.30257L4.34941 2.30258L4.84747 2.63715ZM2.95603 13.0427L3.22842 12.5081L3.22842 12.5081L2.95603 13.0427ZM1.79065 11.8773L2.32525 11.6049L2.32525 11.6049L1.79065 11.8773ZM13.2094 11.8773L12.6747 11.6049L12.6747 11.6049L13.2094 11.8773ZM12.044 13.0427L11.7716 12.5081L11.7716 12.5081L12.044 13.0427ZM13.4562 4.8522L14.0464 4.74395L14.0464 4.74395L13.4562 4.8522ZM11.3144 2.71041L11.2062 3.30056L11.2062 3.30056L11.3144 2.71041ZM1.54376 4.8522L2.13391 4.96045L1.54376 4.8522ZM3.68555 2.71041L3.5773 2.12025L3.68555 2.71041ZM13.5 5.94926H12.9V9.06665H13.5H14.1V5.94926H13.5ZM9.23333 13.3333V12.7333H5.76667V13.3333V13.9333H9.23333V13.3333ZM1.5 9.06665H2.1V5.94926H1.5H0.9V9.06665H1.5ZM4.85602 2.62128L5.39267 2.88961L5.44702 2.78092L4.91036 2.51259L4.37371 2.24426L4.31936 2.35295L4.85602 2.62128ZM6.81847 1.33331V1.93331H8.18153V1.33331V0.733313H6.81847V1.33331ZM10.0896 2.51259L9.55298 2.78092L9.60733 2.88961L10.144 2.62128L10.6806 2.35295L10.6263 2.24426L10.0896 2.51259ZM10.2174 2.66665V2.06665C10.2162 2.06665 10.2154 2.06665 10.2148 2.06665C10.2142 2.06664 10.214 2.06664 10.2141 2.06664C10.2143 2.06665 10.215 2.06665 10.216 2.06666C10.2171 2.06667 10.2188 2.0667 10.221 2.06675C10.2295 2.06696 10.2498 2.06765 10.2759 2.071L10.1994 2.6661L10.1229 3.26121C10.1532 3.2651 10.1779 3.26606 10.1921 3.2664C10.2038 3.26669 10.2156 3.26665 10.2174 3.26665V2.66665ZM10.144 2.62128L9.60733 2.8896C9.60814 2.89123 9.61337 2.90179 9.61886 2.91213C9.62551 2.92468 9.63743 2.94636 9.65446 2.97171L10.1525 2.63715L10.6506 2.3026C10.6652 2.3244 10.6749 2.34226 10.679 2.34982C10.68 2.35175 10.6808 2.35326 10.6812 2.3542C10.6817 2.35514 10.682 2.35575 10.6821 2.35586C10.6822 2.35597 10.6821 2.35584 10.6818 2.35529C10.6815 2.35472 10.6812 2.35405 10.6806 2.35296L10.144 2.62128ZM10.1994 2.6661L10.2759 2.071C10.4283 2.0906 10.5649 2.17501 10.6506 2.30258L10.1525 2.63715L9.65447 2.97173C9.7616 3.1312 9.93231 3.23671 10.1229 3.2612L10.1994 2.6661ZM8.18153 1.33331V1.93331C8.70363 1.93331 8.82157 1.94114 8.91507 1.97339L9.11072 1.40619L9.30636 0.838979C8.97732 0.725485 8.61664 0.733313 8.18153 0.733313V1.33331ZM10.0896 2.51259L10.6263 2.24426C10.4317 1.85509 10.2774 1.52899 10.0287 1.28544L9.60891 1.71409L9.18908 2.14274C9.25974 2.21195 9.31949 2.31393 9.55298 2.78092L10.0896 2.51259ZM9.11072 1.40619L8.91507 1.97339C9.01783 2.00884 9.11143 2.06668 9.18908 2.14274L9.60891 1.71409L10.0287 1.28544C9.82401 1.08492 9.57727 0.932421 9.30636 0.838979L9.11072 1.40619ZM4.91036 2.51259L5.44702 2.78092C5.68051 2.31393 5.74026 2.21195 5.81092 2.14274L5.39109 1.71409L4.97126 1.28544C4.72259 1.52899 4.56829 1.85509 4.37371 2.24426L4.91036 2.51259ZM6.81847 1.33331V0.733313C6.38336 0.733313 6.02268 0.725484 5.69364 0.838979L5.88928 1.40619L6.08493 1.97339C6.17843 1.94114 6.29637 1.93331 6.81847 1.93331V1.33331ZM5.39109 1.71409L5.81092 2.14274C5.88857 2.06668 5.98217 2.00884 6.08493 1.97339L5.88928 1.40619L5.69364 0.838979C5.42273 0.932421 5.17599 1.08492 4.97126 1.28544L5.39109 1.71409ZM4.78261 2.66665V3.26665C4.78444 3.26665 4.79622 3.26669 4.80792 3.2664C4.82212 3.26606 4.84685 3.2651 4.87714 3.2612L4.80063 2.6661L4.72412 2.071C4.75018 2.06765 4.77049 2.06696 4.77905 2.06675C4.78123 2.0667 4.78294 2.06667 4.78399 2.06666C4.78505 2.06665 4.78573 2.06665 4.78586 2.06664C4.78598 2.06664 4.78584 2.06664 4.78522 2.06665C4.78458 2.06665 4.78383 2.06665 4.78261 2.06665V2.66665ZM4.85602 2.62128L4.31936 2.35296C4.31881 2.35405 4.31847 2.35472 4.31819 2.3553C4.31791 2.35585 4.31785 2.35597 4.3179 2.35586C4.31796 2.35575 4.31827 2.35514 4.31875 2.3542C4.31924 2.35326 4.32003 2.35174 4.32105 2.34981C4.32506 2.34225 4.33477 2.32438 4.34942 2.30257L4.84747 2.63715L5.34552 2.97174C5.36255 2.94638 5.37448 2.92469 5.38114 2.91213C5.38663 2.90179 5.39186 2.89123 5.39268 2.8896L4.85602 2.62128ZM4.80063 2.6661L4.87714 3.2612C5.06769 3.23671 5.2384 3.1312 5.34553 2.97172L4.84747 2.63715L4.34941 2.30258C4.43511 2.17501 4.57168 2.0906 4.72412 2.071L4.80063 2.6661ZM5.76667 13.3333V12.7333C5.01003 12.7333 4.47864 12.7328 4.06406 12.699C3.6565 12.6657 3.41495 12.6031 3.22842 12.5081L2.95603 13.0427L2.68363 13.5773C3.06753 13.7729 3.48457 13.8556 3.96635 13.895C4.44112 13.9338 5.02983 13.9333 5.76667 13.9333V13.3333ZM1.5 9.06665H0.9C0.9 9.80348 0.899533 10.3922 0.938324 10.867C0.977687 11.3487 1.06044 11.7658 1.25605 12.1497L1.79065 11.8773L2.32525 11.6049C2.23021 11.4184 2.16764 11.1768 2.13434 10.7692C2.10047 10.3547 2.1 9.82328 2.1 9.06665H1.5ZM2.95603 13.0427L3.22842 12.5081C2.83955 12.3099 2.52339 11.9938 2.32525 11.6049L1.79065 11.8773L1.25605 12.1497C1.56923 12.7643 2.06897 13.2641 2.68363 13.5773L2.95603 13.0427ZM13.5 9.06665H12.9C12.9 9.82328 12.8995 10.3547 12.8657 10.7692C12.8324 11.1768 12.7698 11.4184 12.6747 11.6049L13.2094 11.8773L13.744 12.1497C13.9396 11.7658 14.0223 11.3487 14.0617 10.867C14.1005 10.3922 14.1 9.80348 14.1 9.06665H13.5ZM9.23333 13.3333V13.9333C9.97017 13.9333 10.5589 13.9338 11.0337 13.895C11.5154 13.8556 11.9325 13.7729 12.3164 13.5773L12.044 13.0427L11.7716 12.5081C11.585 12.6031 11.3435 12.6657 10.9359 12.699C10.5214 12.7328 9.98997 12.7333 9.23333 12.7333V13.3333ZM13.2094 11.8773L12.6747 11.6049C12.4766 11.9938 12.1604 12.3099 11.7716 12.5081L12.044 13.0427L12.3164 13.5773C12.931 13.2641 13.4308 12.7643 13.744 12.1497L13.2094 11.8773ZM13.5 5.94926H14.1C14.1 5.40346 14.1025 5.04972 14.0464 4.74395L13.4562 4.8522L12.8661 4.96045C12.8975 5.13181 12.9 5.3504 12.9 5.94926H13.5ZM10.2174 2.66665V3.26665C10.8162 3.26665 11.0348 3.26913 11.2062 3.30056L11.3144 2.71041L11.4227 2.12025C11.1169 2.06416 10.7632 2.06665 10.2174 2.06665V2.66665ZM13.4562 4.8522L14.0464 4.74395C13.8016 3.40936 12.7573 2.36505 11.4227 2.12025L11.3144 2.71041L11.2062 3.30056C12.0505 3.45543 12.7112 4.11612 12.8661 4.96045L13.4562 4.8522ZM1.5 5.94926H2.1C2.1 5.3504 2.10248 5.13181 2.13391 4.96045L1.54376 4.8522L0.953606 4.74395C0.897518 5.04972 0.9 5.40346 0.9 5.94926H1.5ZM4.78261 2.66665V2.06665C4.23682 2.06665 3.88308 2.06416 3.5773 2.12025L3.68555 2.71041L3.7938 3.30056C3.96516 3.26913 4.18375 3.26665 4.78261 3.26665V2.66665ZM1.54376 4.8522L2.13391 4.96045C2.28879 4.11612 2.94947 3.45543 3.7938 3.30056L3.68555 2.71041L3.5773 2.12025C2.24272 2.36505 1.19841 3.40936 0.953606 4.74395L1.54376 4.8522ZM10.1667 7.99998H9.56667C9.56667 9.14137 8.64139 10.0666 7.5 10.0666V10.6666V11.2666C9.30413 11.2666 10.7667 9.80411 10.7667 7.99998H10.1667ZM7.5 10.6666V10.0666C6.35861 10.0666 5.43333 9.14137 5.43333 7.99998H4.83333H4.23333C4.23333 9.80411 5.69587 11.2666 7.5 11.2666V10.6666ZM4.83333 7.99998H5.43333C5.43333 6.85859 6.35861 5.93331 7.5 5.93331V5.33331V4.73331C5.69587 4.73331 4.23333 6.19585 4.23333 7.99998H4.83333ZM7.5 5.33331V5.93331C8.64139 5.93331 9.56667 6.85859 9.56667 7.99998H10.1667H10.7667C10.7667 6.19585 9.30413 4.73331 7.5 4.73331V5.33331Z" fill="#F3F3F3"/>
</svg>
