<svg width="21" height="20" viewBox="0 0 21 20" fill="none" xmlns="http://www.w3.org/2000/svg">
<path d="M17.3415 6.16688L14.0081 3.38911C13.3901 2.87404 12.4923 2.87404 11.8742 3.38911L9.00814 5.77748C8.39006 6.29255 7.49227 6.29255 6.87419 5.77748L4.30798 3.63898C3.76521 3.18667 2.94116 3.57263 2.94116 4.27916V12.5527C2.94116 13.0473 3.16087 13.5164 3.54085 13.833L6.87419 16.6108C7.18323 16.8683 7.56219 16.9971 7.94116 16.9971M7.94116 6.66663V16.6666M17.9412 11.6666C17.9412 13.5076 15.4412 16.6666 14.6078 16.6666C13.7745 16.6666 11.2745 13.5076 11.2745 11.6666C11.2745 9.82568 12.7669 8.33329 14.6078 8.33329C16.4488 8.33329 17.9412 9.82568 17.9412 11.6666Z" stroke="#757575" stroke-width="1.25" stroke-linecap="round"/>
</svg>
