<svg width="18" height="22" viewBox="0 0 18 22" fill="none" xmlns="http://www.w3.org/2000/svg">
<path d="M5 13.3684C2.60879 14.0601 1 15.3527 1 16.8333C1 19.0425 4.58172 20.8333 9 20.8333C13.4183 20.8333 17 19.0425 17 16.8333C17 15.3527 15.3912 14.0601 13 13.3684M15 7.23331C15 10.7679 10.5 16.8333 9 16.8333C7.5 16.8333 3 10.7679 3 7.23331C3 3.69869 5.68629 0.833313 9 0.833313C12.3137 0.833313 15 3.69869 15 7.23331ZM11 6.83331C11 7.93788 10.1046 8.83331 9 8.83331C7.89543 8.83331 7 7.93788 7 6.83331C7 5.72874 7.89543 4.83331 9 4.83331C10.1046 4.83331 11 5.72874 11 6.83331Z" stroke="#757575" stroke-width="1.5"/>
</svg>
