<svg width="24" height="24" viewBox="0 0 24 24" fill="none" xmlns="http://www.w3.org/2000/svg">
<path d="M11 0.083313C10.5858 0.083313 10.25 0.419099 10.25 0.833313C10.25 1.24753 10.5858 1.58331 11 1.58331V0.083313ZM13 1.58331C13.4142 1.58331 13.75 1.24753 13.75 0.833313C13.75 0.419099 13.4142 0.083313 13 0.083313V1.58331ZM23.75 10.8333C23.75 10.4191 23.4142 10.0833 23 10.0833C22.5858 10.0833 22.25 10.4191 22.25 10.8333H23.75ZM22.25 12.8333C22.25 13.2475 22.5858 13.5833 23 13.5833C23.4142 13.5833 23.75 13.2475 23.75 12.8333H22.25ZM11 22.0833C10.5858 22.0833 10.25 22.4191 10.25 22.8333C10.25 23.2475 10.5858 23.5833 11 23.5833V22.0833ZM13 23.5833C13.4142 23.5833 13.75 23.2475 13.75 22.8333C13.75 22.4191 13.4142 22.0833 13 22.0833V23.5833ZM1.75 10.8333C1.75 10.4191 1.41421 10.0833 1 10.0833C0.585787 10.0833 0.25 10.4191 0.25 10.8333H1.75ZM0.25 12.8333C0.25 13.2475 0.585786 13.5833 1 13.5833C1.41421 13.5833 1.75 13.2475 1.75 12.8333H0.25ZM3.72993 22.2883L4.07042 21.6201H4.07042L3.72993 22.2883ZM1.54485 20.1033L2.21311 19.7628H2.21311L1.54485 20.1033ZM22.4549 20.1033L21.7867 19.7628V19.7628L22.4549 20.1033ZM20.2698 22.2883L19.9293 21.6201H19.9293L20.2698 22.2883ZM20.2698 1.37828L19.9293 2.04654V2.04654L20.2698 1.37828ZM22.4549 3.56336L21.7867 3.90385V3.90385L22.4549 3.56336ZM3.72993 1.37828L4.07043 2.04654L3.72993 1.37828ZM1.54485 3.56336L2.21311 3.90385V3.90385L1.54485 3.56336ZM7.01435 1.59422C7.42849 1.58629 7.75779 1.24414 7.74986 0.830004C7.74194 0.415867 7.39978 0.0865685 6.98565 0.0944961L7.01435 1.59422ZM0.261069 6.81897C0.253141 7.23311 0.582438 7.57526 0.996576 7.58319C1.41071 7.59112 1.75287 7.26182 1.76079 6.84768L0.261069 6.81897ZM1.76079 16.8189C1.75287 16.4048 1.41071 16.0755 0.996576 16.0834C0.582438 16.0914 0.253141 16.4335 0.261069 16.8477L1.76079 16.8189ZM6.98565 23.5721C7.39978 23.5801 7.74194 23.2508 7.74986 22.8366C7.75779 22.4225 7.42849 22.0803 7.01436 22.0724L6.98565 23.5721ZM16.9854 22.0724C16.5713 22.0803 16.242 22.4225 16.2499 22.8366C16.2578 23.2508 16.6 23.5801 17.0141 23.5721L16.9854 22.0724ZM23.7387 16.8477C23.7466 16.4335 23.4173 16.0914 23.0032 16.0834C22.5891 16.0755 22.2469 16.4048 22.239 16.8189L23.7387 16.8477ZM22.239 6.84768C22.2469 7.26182 22.5891 7.59112 23.0032 7.58319C23.4173 7.57526 23.7466 7.23311 23.7387 6.81897L22.239 6.84768ZM17.0141 0.0944961C16.6 0.0865682 16.2578 0.415866 16.2499 0.830004C16.242 1.24414 16.5713 1.58629 16.9854 1.59422L17.0141 0.0944961ZM11.3816 7.19555L10.8513 6.66522L11.3816 7.19555ZM7.36223 11.2149L7.89256 11.7453V11.7453L7.36223 11.2149ZM7.36223 12.964L7.89256 12.4336V12.4336L7.36223 12.964ZM10.8694 16.4711L10.339 17.0014L10.8694 16.4711ZM12.6184 16.4711L13.1487 17.0014L12.6184 16.4711ZM16.6378 12.4517L17.1681 12.982L16.6378 12.4517ZM11 0.833313V1.58331H13V0.833313V0.083313H11V0.833313ZM23 10.8333H22.25V12.8333H23H23.75V10.8333H23ZM11 22.8333V23.5833H13V22.8333V22.0833H11V22.8333ZM1 10.8333H0.25L0.25 12.8333H1H1.75L1.75 10.8333H1ZM3.72993 22.2883L4.07042 21.6201C3.27074 21.2126 2.62057 20.5625 2.21311 19.7628L1.54485 20.1033L0.876597 20.4438C1.42787 21.5257 2.30751 22.4053 3.38944 22.9566L3.72993 22.2883ZM22.4549 20.1033L21.7867 19.7628C21.3792 20.5625 20.729 21.2126 19.9293 21.6201L20.2698 22.2883L20.6103 22.9566C21.6923 22.4053 22.5719 21.5257 23.1232 20.4438L22.4549 20.1033ZM20.2698 1.37828L19.9293 2.04654C20.729 2.454 21.3792 3.10416 21.7867 3.90385L22.4549 3.56336L23.1232 3.22287C22.5719 2.14094 21.6923 1.2613 20.6103 0.710026L20.2698 1.37828ZM3.72993 1.37828L3.38944 0.710026C2.30751 1.2613 1.42787 2.14094 0.876597 3.22287L1.54485 3.56336L2.21311 3.90385C2.62057 3.10416 3.27074 2.454 4.07043 2.04654L3.72993 1.37828ZM7 0.844359L6.98565 0.0944961C5.44932 0.123905 4.33696 0.227241 3.38944 0.710026L3.72993 1.37828L4.07043 2.04654C4.6788 1.73655 5.47211 1.62374 7.01435 1.59422L7 0.844359ZM1.01093 6.83333L1.76079 6.84768C1.79032 5.3055 1.90313 4.51221 2.21311 3.90385L1.54485 3.56336L0.876597 3.22287C0.393823 4.17037 0.290481 5.2827 0.261069 6.81897L1.01093 6.83333ZM1.01093 16.8333L0.261069 16.8477C0.290481 18.3839 0.393823 19.4963 0.876597 20.4438L1.54485 20.1033L2.21311 19.7628C1.90313 19.1544 1.79032 18.3611 1.76079 16.8189L1.01093 16.8333ZM7 22.8223L7.01436 22.0724C5.47211 22.0429 4.6788 21.9301 4.07042 21.6201L3.72993 22.2883L3.38944 22.9566C4.33696 23.4394 5.44932 23.5427 6.98565 23.5721L7 22.8223ZM16.9998 22.8223L17.0141 23.5721C18.5505 23.5427 19.6628 23.4394 20.6103 22.9566L20.2698 22.2883L19.9293 21.6201C19.321 21.9301 18.5277 22.0429 16.9854 22.0724L16.9998 22.8223ZM22.9888 16.8333L22.239 16.8189C22.2094 18.3611 22.0966 19.1544 21.7867 19.7628L22.4549 20.1033L23.1232 20.4438C23.6059 19.4963 23.7093 18.3839 23.7387 16.8477L22.9888 16.8333ZM22.9888 6.83333L23.7387 6.81897C23.7093 5.2827 23.6059 4.17037 23.1232 3.22287L22.4549 3.56336L21.7867 3.90385C22.0966 4.51221 22.2094 5.3055 22.239 6.84768L22.9888 6.83333ZM16.9998 0.844359L16.9854 1.59422C18.5277 1.62374 19.321 1.73655 19.9293 2.04654L20.2698 1.37828L20.6103 0.710026C19.6628 0.227243 18.5505 0.123906 17.0141 0.0944961L16.9998 0.844359ZM15.7633 6.83331V6.08331H12.2561V6.83331V7.58331H15.7633V6.83331ZM11.3816 7.19555L10.8513 6.66522L6.8319 10.6846L7.36223 11.2149L7.89256 11.7453L11.912 7.72588L11.3816 7.19555ZM7.36223 12.964L6.8319 13.4943L10.339 17.0014L10.8694 16.4711L11.3997 15.9408L7.89256 12.4336L7.36223 12.964ZM12.6184 16.4711L13.1487 17.0014L17.1681 12.982L16.6378 12.4517L16.1074 11.9214L12.088 15.9408L12.6184 16.4711ZM17 11.5772H17.75V8.07005H17H16.25V11.5772H17ZM16.6378 12.4517L17.1681 12.982C17.5407 12.6094 17.75 12.1041 17.75 11.5772H17H16.25C16.25 11.7063 16.1987 11.8301 16.1074 11.9214L16.6378 12.4517ZM10.8694 16.4711L10.339 17.0014C11.1149 17.7773 12.3728 17.7773 13.1487 17.0014L12.6184 16.4711L12.088 15.9408C11.898 16.1308 11.5898 16.1308 11.3997 15.9408L10.8694 16.4711ZM7.36223 11.2149L6.8319 10.6846C6.05603 11.4605 6.05603 12.7184 6.8319 13.4943L7.36223 12.964L7.89256 12.4336C7.70248 12.2435 7.70248 11.9354 7.89256 11.7453L7.36223 11.2149ZM12.2561 6.83331V6.08331C11.7292 6.08331 11.2239 6.29263 10.8513 6.66522L11.3816 7.19555L11.912 7.72588C12.0032 7.63459 12.127 7.58331 12.2561 7.58331V6.83331ZM15.7633 6.83331V7.58331C16.0321 7.58331 16.25 7.80123 16.25 8.07005H17H17.75C17.75 6.97281 16.8605 6.08331 15.7633 6.08331V6.83331Z" fill="#757575"/>
</svg>
