<svg width="31" height="35" viewBox="0 0 31 35" fill="none" xmlns="http://www.w3.org/2000/svg">
<g filter="url(#filter0_d_20_2735)">
<path fill-rule="evenodd" clip-rule="evenodd" d="M15.3222 2.23743C22.1518 2.23743 27.6883 7.77392 27.6883 14.6035C27.6883 19.8401 24.4334 24.3164 19.8364 26.1198L16.0264 31.3276C15.9469 31.4366 15.8415 31.5256 15.7189 31.587C15.5963 31.6485 15.4602 31.6805 15.322 31.6805C15.1839 31.6805 15.0478 31.6485 14.9252 31.587C14.8026 31.5256 14.6971 31.4366 14.6177 31.3276L10.8076 26.1196C6.21076 24.3162 2.95605 19.8399 2.95605 14.6035C2.95605 7.77392 8.49255 2.23743 15.3222 2.23743Z" fill="white"/>
</g>
<defs>
<filter id="filter0_d_20_2735" x="0.531328" y="0.297645" width="29.5817" height="34.2926" filterUnits="userSpaceOnUse" color-interpolation-filters="sRGB">
<feFlood flood-opacity="0" result="BackgroundImageFix"/>
<feColorMatrix in="SourceAlpha" type="matrix" values="0 0 0 0 0 0 0 0 0 0 0 0 0 0 0 0 0 0 127 0" result="hardAlpha"/>
<feOffset dy="0.484945"/>
<feGaussianBlur stdDeviation="1.21236"/>
<feComposite in2="hardAlpha" operator="out"/>
<feColorMatrix type="matrix" values="0 0 0 0 0 0 0 0 0 0 0 0 0 0 0 0 0 0 0.1 0"/>
<feBlend mode="normal" in2="BackgroundImageFix" result="effect1_dropShadow_20_2735"/>
<feBlend mode="normal" in="SourceGraphic" in2="effect1_dropShadow_20_2735" result="shape"/>
</filter>
</defs>
</svg>
